<svg aria-hidden="true" style="position: absolute; width: 0; height: 0; overflow: hidden;" version="1.1" xmlns="http://www.w3.org/2000/svg" xmlns:xlink="http://www.w3.org/1999/xlink">
<defs>
<symbol id="icon-arrow" viewBox="0 0 32 32">
<path stroke-linejoin="miter" stroke-linecap="butt" stroke-miterlimit="4" stroke-width="4.2667" d="M29.867 9.6v6.4h-25.6M4.267 16l7.467-7.467M4.267 16l7.467 7.467"></path>
</symbol>
<symbol id="icon-arrow-back" viewBox="0 0 32 32">
<path d="M12.586 27.414l-10-10c-0.781-0.781-0.781-2.047 0-2.828l10-10c0.781-0.781 2.047-0.781 2.828 0s0.781 2.047 0 2.828l-6.586 6.586h19.172c1.105 0 2 0.895 2 2s-0.895 2-2 2h-19.172l6.586 6.586c0.39 0.39 0.586 0.902 0.586 1.414s-0.195 1.024-0.586 1.414c-0.781 0.781-2.047 0.781-2.828 0z"></path>
</symbol>
<symbol id="icon-left-arrow" viewBox="0 0 32 32">
<path d="M30.237 4.966l0.014 0.025h-1.495c-0.931 0-1.685 0.701-1.738 1.619-0.014 0.031-0.016 0.035-0.016 0.071v10.307h-18.187l0.865-0.879c0.33-0.327 0.511-0.774 0.511-1.24 0-0.467-0.181-0.909-0.511-1.236l-1.048-1.044c-0.681-0.677-1.791-0.679-2.473-0.001l-5.648 5.613c-0.33 0.329-0.512 0.767-0.51 1.234-0.002 0.468 0.18 0.907 0.51 1.236l5.893 5.857c0.341 0.339 0.789 0.508 1.237 0.508s0.895-0.169 1.236-0.508l1.048-1.041c0.33-0.328 0.511-0.765 0.511-1.231s-0.181-0.871-0.511-1.198l-1.11-1.070h20.673c1.378 0 2.512-1.181 2.512-2.552v-12.753c0-0.964-0.798-1.715-1.763-1.715z"></path>
</symbol>

<symbol id="icon-calendar" viewBox="0 0 32 32">
<path fill="#9b9faa" style="fill: var(--color1, #9b9faa)" d="M24 14.4h-3.2v3.2h3.2v-3.2zM17.6 14.4h-3.2v3.2h3.2v-3.2zM11.2 14.4h-3.2v3.2h3.2v-3.2z"></path>
<path fill="#9b9faa" style="fill: var(--color1, #9b9faa)" d="M27.2 3.2h-1.6v-3.2h-3.2v3.2h-12.8v-3.2h-3.2v3.2h-1.6c-1.776 0-3.184 1.44-3.184 3.2l-0.016 22.4c0 1.767 1.433 3.2 3.2 3.2v0h22.4c1.76 0 3.2-1.44 3.2-3.2v-22.4c0-1.76-1.44-3.2-3.2-3.2zM27.2 28.8h-22.4v-17.6h22.4v17.6z"></path>
</symbol>
<symbol id="icon-close" viewBox="0 0 32 32">
<path d="M31.555 3.576l-3.133-3.131-12.421 12.421-12.421-12.421-3.133 3.128 12.421 12.427-12.421 12.421 3.133 3.133 12.421-12.421 12.421 12.421 3.133-3.133-12.421-12.421 12.421-12.424z"></path>
</symbol>
<symbol id="icon-delete" viewBox="0 0 32 32">
<path fill="none" stroke="#9b9faa" style="stroke: var(--color1, #9b9faa)" stroke-linejoin="miter" stroke-linecap="butt" stroke-miterlimit="4" stroke-width="4.5714" d="M2.286 2.286l27.429 27.429M2.286 29.714l27.429-27.429"></path>
</symbol>
<symbol id="icon-add" viewBox="0 0 32 32">
<path fill="#fff" style="fill: var(--color2, #fff)" d="M25.333 17.333h-8v8h-2.667v-8h-8v-2.667h8v-8h2.667v8h8v2.667z"></path>
</symbol>
</defs>
</svg>
